<svg width="32" height="32" viewBox="0 0 32 32" fill="none" xmlns="http://www.w3.org/2000/svg">
<g clip-path="url(#clip0_5416_3)">
<rect width="32" height="32" rx="5" fill="#4096FF"/>
<path d="M16.411 26.406C14.5067 26.406 12.931 26.029 11.684 25.275C10.4467 24.521 9.5235 23.4625 8.9145 22.0995C8.3055 20.7365 8.001 19.1367 8.001 17.3V5.7H11.713V16.343C11.713 17.3097 11.7758 18.1942 11.9015 18.9965C12.0272 19.7892 12.2543 20.4755 12.583 21.0555C12.9213 21.6258 13.3998 22.0657 14.0185 22.375C14.6372 22.6843 15.4347 22.839 16.411 22.839C17.3873 22.839 18.1848 22.6843 18.8035 22.375C19.4222 22.0657 19.8958 21.6258 20.2245 21.0555C20.5628 20.4755 20.7948 19.7892 20.9205 18.9965C21.0462 18.1942 21.109 17.3097 21.109 16.343V5.7H24.821V17.3C24.821 19.1367 24.5165 20.7365 23.9075 22.0995C23.2985 23.4625 22.3705 24.521 21.1235 25.275C19.8862 26.029 18.3153 26.406 16.411 26.406Z" fill="white"/>
</g>
<defs>
<clipPath id="clip0_5416_3">
<rect width="32" height="32" fill="white"/>
</clipPath>
</defs>
</svg>
